<svg id="svg" version="1.1" xmlns="http://www.w3.org/2000/svg" xmlns:xlink="http://www.w3.org/1999/xlink" width="400" height="400" viewBox="0, 0, 400,400"><g id="svgg"><path id="path0" d="M188.600 17.242 C 177.883 18.542,173.413 19.413,162.200 22.386 C 160.657 22.794,154.843 24.728,153.800 25.180 C 153.360 25.370,152.190 25.827,151.200 26.196 C 147.805 27.459,136.249 33.015,132.800 35.042 C 128.561 37.534,117.057 45.565,116.000 46.772 C 115.890 46.897,114.630 47.976,113.200 49.169 C 109.851 51.963,101.563 60.251,98.769 63.600 C 97.576 65.030,96.489 66.290,96.353 66.400 C 95.773 66.869,88.423 76.891,86.492 79.846 C 84.696 82.593,83.940 83.352,81.383 84.971 C 68.324 93.244,63.658 109.616,70.118 124.500 C 71.968 128.763,84.270 116.573,86.769 108.000 C 87.057 107.010,87.461 105.660,87.666 105.000 C 88.639 101.871,88.501 93.444,87.362 86.394 C 87.162 85.158,87.428 84.551,89.552 81.394 C 108.841 52.718,134.056 33.893,164.800 25.215 C 165.790 24.936,167.050 24.567,167.600 24.396 C 168.150 24.225,169.680 23.866,171.000 23.597 C 172.320 23.328,173.940 22.969,174.600 22.798 C 175.260 22.627,177.104 22.284,178.698 22.035 C 180.292 21.786,182.775 21.384,184.216 21.142 C 185.657 20.900,186.948 20.815,187.085 20.951 C 187.395 21.261,187.785 21.033,182.600 23.573 C 168.812 30.325,156.614 42.619,147.245 59.208 C 145.835 61.703,145.136 62.480,143.140 63.773 C 136.975 67.765,133.356 72.672,130.730 80.600 C 130.019 82.747,130.016 93.882,130.725 96.600 C 131.753 100.536,132.941 104.000,133.262 104.000 C 134.228 104.000,139.582 100.274,141.829 98.038 C 149.540 90.365,152.541 80.131,150.580 68.200 C 150.254 66.220,149.881 63.954,149.750 63.165 C 149.547 61.941,149.791 61.268,151.417 58.565 C 162.414 40.293,176.012 28.408,191.800 23.272 C 194.075 22.532,195.200 22.239,199.729 21.212 C 202.848 20.504,212.559 20.282,217.800 20.799 C 227.247 21.730,227.739 21.897,223.500 22.733 C 213.221 24.759,207.266 27.073,200.354 31.727 C 198.250 33.143,195.375 34.696,193.965 35.178 C 179.534 40.108,171.223 53.668,173.163 69.118 C 173.637 72.890,173.561 72.834,176.759 71.787 C 190.680 67.227,197.836 56.444,199.306 37.814 C 199.430 36.247,202.086 34.214,207.400 31.618 C 213.654 28.563,216.695 27.594,225.176 25.956 C 228.868 25.243,242.097 25.244,244.400 25.958 C 248.741 27.303,249.611 27.605,253.204 29.022 C 255.292 29.845,257.171 30.672,257.380 30.859 C 258.377 31.754,259.962 30.621,259.987 28.994 C 260.001 28.148,259.222 27.722,254.013 25.725 C 249.975 24.177,247.564 23.339,245.600 22.800 C 244.610 22.529,243.350 22.169,242.800 22.000 C 241.320 21.545,238.861 20.910,236.600 20.397 C 229.813 18.859,227.822 18.539,216.800 17.209 C 212.804 16.727,192.651 16.751,188.600 17.242 M249.000 36.793 C 221.058 40.118,199.549 62.309,193.938 93.600 C 193.219 97.610,193.216 112.469,193.933 116.000 C 196.765 129.933,200.970 139.578,208.407 149.200 C 209.002 149.970,209.693 151.230,209.942 152.000 C 210.190 152.770,210.678 154.300,211.026 155.400 C 214.694 167.006,224.357 173.857,239.509 175.593 C 244.754 176.195,245.167 175.930,244.339 172.506 C 240.715 157.517,227.274 146.526,212.400 146.388 C 208.401 146.350,200.470 131.230,198.035 119.000 C 197.816 117.900,197.428 115.932,197.173 114.626 C 194.655 101.733,198.613 81.980,206.263 69.269 C 209.448 63.977,210.071 63.905,208.576 69.000 C 207.593 72.349,207.606 83.375,208.598 87.400 C 209.492 91.026,209.481 91.286,208.310 94.600 C 204.238 106.120,207.950 118.782,217.806 126.989 C 225.207 133.152,226.110 133.404,227.225 129.618 C 228.672 124.712,228.861 123.506,228.866 119.200 C 228.871 114.921,228.639 113.430,227.280 108.996 C 225.757 104.029,215.569 90.800,213.267 90.800 C 212.928 90.800,212.503 89.569,211.539 85.800 C 207.736 70.934,216.912 52.345,231.481 45.402 C 240.060 41.313,245.827 40.014,255.400 40.015 C 260.854 40.016,262.315 40.174,268.905 41.474 C 271.676 42.021,270.008 42.400,264.829 42.400 C 257.606 42.400,253.505 43.290,248.334 45.979 C 246.720 46.818,244.255 47.798,242.854 48.156 C 230.042 51.431,222.402 62.263,222.400 77.151 L 222.400 81.302 224.100 81.032 C 233.514 79.533,243.851 69.865,245.732 60.800 C 245.846 60.250,246.223 58.540,246.570 57.000 C 246.916 55.460,247.200 53.444,247.200 52.521 C 247.200 50.430,248.370 49.429,252.900 47.646 C 260.256 44.749,270.395 44.894,282.750 48.072 C 288.224 49.480,296.568 56.939,300.736 64.150 C 302.056 66.434,301.535 66.363,298.745 63.877 C 297.290 62.581,294.828 60.969,292.827 60.004 C 288.876 58.097,288.326 57.803,285.854 56.271 C 279.351 52.243,271.029 52.495,263.042 56.962 C 259.772 58.790,259.657 58.995,261.056 60.475 C 267.686 67.485,278.503 68.906,288.338 64.057 C 296.122 60.219,308.502 78.299,306.830 91.062 C 304.763 106.838,295.616 119.830,282.936 125.002 C 273.942 128.671,262.167 124.800,257.973 116.796 C 255.992 113.014,255.973 112.752,257.461 109.731 C 259.633 105.322,260.230 98.543,258.760 94.956 C 256.111 88.489,251.257 82.064,249.742 83.019 C 246.742 84.912,244.584 95.141,246.044 100.554 C 246.913 103.774,249.032 108.095,251.169 111.000 C 251.978 112.100,252.877 113.702,253.167 114.559 C 254.084 117.270,256.379 120.759,259.039 123.485 C 261.842 126.358,261.960 126.820,259.690 126.044 C 239.562 119.155,231.545 99.052,242.436 82.779 C 250.073 71.369,265.534 69.328,275.276 78.443 L 277.674 80.687 276.865 82.272 C 271.649 92.496,274.210 103.700,283.696 112.163 C 286.800 114.931,286.853 114.930,288.158 112.022 C 291.108 105.449,291.258 97.521,288.543 91.715 C 287.242 88.932,285.254 85.748,283.829 84.166 C 283.053 83.305,282.414 82.455,282.409 82.278 C 282.366 80.788,277.539 75.395,274.400 73.331 C 256.848 61.785,234.478 75.699,234.416 98.200 C 234.402 103.586,235.102 106.759,237.326 111.379 C 243.404 124.010,258.467 132.116,273.289 130.733 C 291.852 129.001,305.882 114.987,309.984 94.080 C 310.519 91.352,310.522 81.713,309.989 79.277 C 309.762 78.245,309.389 76.500,309.159 75.400 C 305.720 58.943,289.902 43.638,271.000 38.480 C 264.698 36.760,255.319 36.041,249.000 36.793 M118.090 66.637 C 108.488 70.003,103.115 78.606,103.234 90.426 C 103.257 92.750,103.092 95.360,102.866 96.226 C 101.791 100.343,101.513 103.045,101.524 109.255 C 101.538 116.418,101.825 118.447,103.981 126.600 C 108.611 144.109,127.230 164.330,151.200 177.883 C 159.383 182.510,163.828 184.756,164.234 184.470 C 164.645 184.180,165.706 181.964,165.515 181.794 C 165.452 181.737,163.936 180.928,162.147 179.996 C 146.020 171.592,140.095 158.252,144.736 140.800 C 146.144 135.502,150.107 127.671,151.520 127.393 C 157.310 126.257,159.800 125.375,163.507 123.147 C 171.770 118.182,178.185 107.424,179.426 96.448 L 179.715 93.895 176.558 94.177 C 161.056 95.560,151.781 104.805,148.646 122.000 C 148.323 123.770,147.620 125.820,146.931 127.000 C 145.338 129.728,143.934 132.828,142.492 136.800 C 141.727 138.909,141.487 139.731,140.335 144.200 C 139.586 147.107,139.702 156.804,140.520 159.600 C 140.874 160.810,141.293 162.247,141.453 162.793 C 141.612 163.339,142.330 164.954,143.049 166.382 C 143.767 167.810,144.279 169.054,144.186 169.148 C 143.510 169.823,136.178 163.216,133.188 159.237 C 127.331 151.444,122.890 137.510,125.315 134.541 C 131.095 127.466,131.248 116.608,125.703 107.100 C 124.053 104.271,123.772 104.262,121.307 106.959 C 115.135 113.712,114.386 123.239,119.339 132.000 C 120.895 134.752,121.129 135.434,121.397 138.000 C 121.792 141.777,123.054 146.684,124.648 150.636 C 126.355 154.869,126.166 155.170,123.555 152.374 C 111.126 139.063,104.785 124.539,104.807 109.433 C 104.819 101.181,105.826 96.630,107.869 95.596 C 117.313 90.821,122.301 80.608,121.022 68.667 C 120.709 65.749,120.682 65.729,118.090 66.637 M320.900 80.670 C 319.641 81.548,319.720 81.849,322.218 85.704 C 326.556 92.402,328.396 102.527,326.793 110.880 C 326.570 112.046,326.197 113.990,325.965 115.200 C 324.710 121.761,322.002 128.800,320.734 128.800 C 316.455 128.800,306.579 137.824,303.442 144.600 C 300.270 151.452,298.575 167.600,301.029 167.600 C 303.128 167.600,310.143 164.352,313.476 161.837 C 321.007 156.153,325.528 145.174,324.621 134.769 C 324.397 132.198,324.488 131.409,325.220 129.569 C 326.160 127.206,327.491 123.301,328.006 121.400 C 329.211 116.949,329.544 115.465,329.939 112.800 C 330.183 111.150,330.494 108.210,330.630 106.266 C 330.914 102.214,331.101 102.273,332.976 107.000 C 334.763 111.504,335.572 114.043,337.181 120.200 C 339.965 130.850,340.595 143.018,338.781 151.100 C 337.269 157.843,336.484 160.219,334.166 165.083 C 332.468 168.647,331.621 169.600,330.156 169.600 C 329.772 169.600,327.983 170.314,326.179 171.187 C 318.666 174.824,314.155 181.709,312.370 192.262 C 311.765 195.836,311.927 196.319,313.663 196.117 C 324.930 194.808,331.792 187.665,333.824 175.129 C 334.197 172.827,334.766 171.007,335.512 169.729 C 337.846 165.726,340.037 160.212,341.126 155.600 C 341.360 154.610,341.659 153.350,341.791 152.800 C 344.605 141.107,342.637 122.170,337.199 108.600 C 337.022 108.160,336.469 106.720,335.970 105.400 C 334.339 101.090,331.125 94.266,328.858 90.300 C 328.386 89.475,327.631 88.149,327.180 87.353 C 325.777 84.876,322.390 79.999,322.088 80.021 C 321.930 80.033,321.395 80.324,320.900 80.670 M92.600 121.488 C 84.534 122.615,76.947 129.524,74.903 137.604 C 73.996 141.194,73.600 143.174,73.600 144.128 C 73.600 144.663,72.537 147.238,71.237 149.850 C 67.914 156.531,66.729 160.292,65.213 168.967 C 62.509 184.449,68.787 210.233,79.733 228.600 C 80.389 229.700,81.122 230.967,81.362 231.415 C 84.152 236.614,85.550 237.817,87.225 236.460 L 88.140 235.720 87.325 234.560 C 81.353 226.059,79.117 215.277,81.187 204.971 C 82.752 197.181,85.322 189.266,86.400 188.914 C 100.054 184.462,109.228 169.075,107.739 153.124 C 107.389 149.379,107.356 149.353,104.349 150.406 C 89.914 155.462,83.200 165.385,83.200 181.667 C 83.200 185.857,83.061 187.059,82.394 188.613 C 80.743 192.466,79.584 196.368,78.004 203.400 C 77.807 204.280,77.521 206.890,77.370 209.200 C 77.062 213.925,76.686 215.194,76.069 213.600 C 75.856 213.050,75.286 211.610,74.802 210.400 C 69.418 196.941,66.784 180.271,68.425 170.046 C 69.033 166.257,69.638 163.155,69.994 162.000 C 71.614 156.755,72.300 154.939,73.771 152.000 L 75.473 148.600 77.839 147.800 C 88.227 144.288,94.337 136.029,95.456 123.986 C 95.744 120.883,95.907 121.025,92.600 121.488 M242.864 133.819 C 242.110 135.474,242.294 135.814,244.489 136.832 C 262.997 145.411,269.370 163.071,260.935 182.400 C 258.016 189.088,256.923 190.400,254.269 190.400 C 248.955 190.400,239.246 196.830,234.941 203.200 C 231.700 207.997,228.002 218.278,228.000 222.500 C 227.999 224.511,237.216 222.921,243.400 219.843 C 251.401 215.861,259.200 203.510,259.200 194.822 C 259.200 194.181,260.145 191.793,261.300 189.515 C 264.153 183.888,265.949 179.424,266.737 176.000 C 266.964 175.010,267.342 173.355,267.575 172.323 C 268.128 169.882,268.123 161.162,267.568 159.046 C 266.519 155.045,266.152 154.029,264.738 151.214 C 262.958 147.673,262.997 147.547,265.364 149.175 C 272.540 154.112,278.901 163.097,281.525 172.000 C 283.459 178.562,283.732 181.794,282.452 182.952 C 281.719 183.617,279.811 187.240,278.742 190.000 C 277.327 193.655,278.170 202.027,280.464 207.105 C 282.617 211.872,283.904 213.362,284.949 212.300 C 292.688 204.435,293.745 195.933,288.315 185.222 C 286.964 182.557,286.400 180.967,286.400 179.822 C 286.400 177.944,285.185 172.163,284.210 169.400 C 283.709 167.982,282.099 164.160,281.723 163.500 C 281.290 162.739,282.574 163.317,283.531 164.314 C 297.582 178.959,304.518 196.367,302.807 212.687 C 302.050 219.904,301.739 220.752,299.373 222.053 C 291.090 226.612,286.427 235.010,286.412 245.400 C 286.403 252.050,287.309 252.476,293.623 248.788 C 301.061 244.444,303.802 239.157,304.403 228.000 C 304.598 224.370,304.935 220.770,305.152 220.000 C 310.307 201.664,302.252 178.382,284.600 160.599 C 278.786 154.741,261.928 141.600,260.227 141.600 C 260.095 141.600,258.684 140.813,257.093 139.852 C 253.466 137.661,244.250 132.800,243.723 132.800 C 243.506 132.800,243.120 133.258,242.864 133.819 M157.600 141.180 C 157.600 142.925,159.020 148.032,160.234 150.651 C 164.304 159.435,173.165 166.090,183.800 168.352 C 184.900 168.586,186.645 168.962,187.677 169.189 C 188.710 169.415,190.060 169.607,190.677 169.616 C 192.834 169.646,197.908 178.043,201.546 187.600 C 204.904 196.422,206.494 210.297,205.182 219.323 C 203.502 230.871,200.567 238.846,194.214 249.128 C 193.247 250.692,192.617 250.777,192.942 249.300 C 193.075 248.695,193.458 246.940,193.792 245.400 C 194.473 242.264,194.619 233.354,194.033 230.677 C 192.628 224.259,192.654 224.672,193.498 222.164 C 195.269 216.898,195.397 216.167,195.383 211.400 C 195.352 201.165,189.704 191.691,179.763 185.201 C 176.182 182.863,176.224 182.873,175.671 184.300 C 170.102 198.663,174.157 212.629,187.000 223.322 C 189.547 225.443,189.687 225.717,190.609 230.400 C 194.195 248.614,183.491 266.310,165.000 272.735 C 154.747 276.298,147.875 276.695,134.096 274.518 C 131.361 274.085,132.497 273.600,136.244 273.600 C 143.477 273.600,149.886 272.063,154.918 269.121 C 155.972 268.505,157.130 268.000,157.489 268.000 C 157.849 268.000,158.786 267.795,159.572 267.545 C 171.953 263.597,177.756 256.173,179.626 241.886 C 180.541 234.901,179.906 233.873,175.521 235.244 C 163.944 238.863,156.736 248.190,154.998 261.800 C 154.553 265.287,154.448 265.464,152.066 266.723 C 146.422 269.709,134.396 270.902,126.400 269.269 C 115.612 267.067,113.916 266.140,106.661 258.480 C 101.972 253.529,98.590 247.361,102.707 251.269 C 104.852 253.304,107.759 255.176,110.989 256.600 C 112.535 257.282,114.803 258.491,116.030 259.287 C 122.403 263.424,129.685 263.468,137.855 259.421 C 142.531 257.104,142.668 256.750,139.874 254.200 C 133.107 248.024,123.274 247.082,113.622 251.686 L 111.043 252.916 109.232 251.958 C 104.010 249.196,98.384 241.662,96.421 234.800 C 96.138 233.810,95.748 232.478,95.553 231.840 C 94.060 226.939,96.416 215.669,100.537 208.000 C 111.457 187.678,135.460 182.886,144.341 199.254 C 146.160 202.607,146.179 202.879,144.790 205.759 C 140.598 214.452,142.297 223.081,149.747 230.931 C 151.955 233.258,152.528 233.213,153.950 230.600 C 158.470 222.295,157.349 212.864,150.844 204.460 C 150.222 203.657,149.302 201.953,148.799 200.673 C 147.539 197.464,145.308 194.153,142.896 191.914 C 139.701 188.948,139.924 188.667,144.200 190.267 C 163.894 197.637,170.925 219.711,158.381 234.785 C 149.756 245.148,132.858 245.732,125.602 235.917 L 124.737 234.747 125.532 233.055 C 130.226 223.068,128.516 214.062,120.269 205.349 C 116.195 201.043,115.508 200.820,114.263 203.400 C 109.839 212.566,111.125 222.132,117.975 231.000 C 118.995 232.320,120.312 234.233,120.903 235.251 C 129.508 250.089,152.358 249.987,162.490 235.067 C 184.996 201.926,136.814 167.255,106.612 194.859 C 80.223 218.977,90.777 262.490,126.200 275.623 C 128.299 276.401,130.375 277.002,134.300 277.970 C 161.787 284.743,192.667 267.170,203.655 238.500 C 203.845 238.005,204.168 237.195,204.374 236.700 C 205.830 233.194,207.190 227.883,208.387 221.033 C 208.924 217.956,208.921 204.017,208.382 200.967 C 207.646 196.801,207.123 194.227,206.804 193.200 C 206.633 192.650,206.270 191.390,205.999 190.400 C 205.292 187.828,202.416 180.504,201.325 178.500 C 198.879 174.005,198.234 172.911,196.693 170.642 C 195.781 169.299,194.353 167.300,193.519 166.200 C 192.686 165.100,192.003 163.839,192.002 163.398 C 191.999 162.293,190.249 157.566,188.975 155.226 C 184.087 146.244,172.397 140.040,160.300 140.007 L 157.600 140.000 157.600 141.180 M334.245 192.990 C 322.055 200.330,315.592 218.469,320.603 231.276 C 320.830 231.858,315.452 240.528,313.024 243.495 C 312.706 243.883,311.228 245.730,309.738 247.600 C 298.945 261.151,285.242 272.805,270.600 280.887 C 268.246 282.186,259.678 286.400,259.390 286.400 C 259.281 286.400,258.428 286.740,257.496 287.156 C 254.573 288.459,248.502 290.579,242.600 292.359 C 240.947 292.857,235.065 294.237,232.400 294.751 C 231.190 294.985,229.300 295.353,228.200 295.570 C 227.100 295.787,224.850 296.074,223.200 296.209 L 220.200 296.454 224.400 294.291 C 231.067 290.856,231.814 290.401,236.123 287.157 C 245.165 280.349,253.528 270.475,260.311 258.600 C 261.904 255.810,262.726 254.798,263.963 254.100 C 269.414 251.026,274.656 244.556,276.360 238.800 C 276.653 237.810,277.052 236.478,277.247 235.840 C 277.820 233.958,277.667 224.097,277.018 221.200 C 275.095 212.602,275.145 212.647,270.751 215.550 C 258.697 223.515,253.953 237.740,258.038 253.673 C 258.348 254.881,258.271 255.404,257.608 256.573 C 257.164 257.358,256.435 258.644,255.989 259.431 C 244.525 279.670,227.783 292.214,206.600 296.437 C 202.006 297.353,186.235 296.895,182.411 295.736 C 181.525 295.467,182.597 294.900,184.592 294.585 C 193.143 293.231,200.412 290.352,208.138 285.259 C 210.524 283.687,212.797 282.400,213.189 282.400 C 218.525 282.400,227.952 274.610,231.342 267.400 C 233.822 262.125,234.530 258.622,234.546 251.549 C 234.561 244.400,234.570 244.415,231.140 245.587 C 220.102 249.356,212.338 257.970,210.035 269.000 C 209.760 270.320,209.369 272.155,209.167 273.077 C 208.965 274.000,208.800 276.006,208.800 277.536 C 208.800 280.205,208.744 280.366,207.424 281.525 C 202.465 285.880,192.435 289.832,181.954 291.563 C 178.780 292.087,165.219 292.148,163.919 291.644 C 163.413 291.448,161.650 290.875,160.000 290.372 C 158.350 289.868,156.829 289.308,156.620 289.128 C 156.411 288.948,156.011 288.800,155.730 288.800 C 155.450 288.800,154.022 288.251,152.558 287.581 C 151.094 286.910,149.609 286.417,149.258 286.484 C 148.030 286.721,147.281 289.600,148.447 289.600 C 148.646 289.600,149.662 289.978,150.704 290.440 C 151.747 290.902,153.005 291.442,153.500 291.640 C 153.995 291.838,154.805 292.172,155.300 292.383 C 158.265 293.646,169.293 296.779,173.600 297.583 C 187.782 300.229,193.388 300.800,205.168 300.800 C 219.164 300.800,229.746 299.315,245.000 295.210 C 257.953 291.724,277.729 281.904,287.237 274.237 C 287.808 273.776,288.973 272.860,289.826 272.200 C 297.033 266.625,306.156 257.546,312.746 249.391 C 313.389 248.596,315.518 245.750,318.427 241.800 C 319.237 240.700,320.750 238.509,321.789 236.930 C 323.306 234.624,324.164 233.776,326.153 232.613 C 338.170 225.584,343.306 210.885,338.804 196.400 C 338.633 195.850,338.266 194.644,337.989 193.721 C 337.322 191.495,336.873 191.407,334.245 192.990 M81.118 327.856 C 78.336 329.323,78.200 329.937,78.200 341.000 C 78.200 350.010,78.272 351.106,78.928 352.072 C 82.425 357.224,89.851 354.427,89.519 348.082 L 89.400 345.800 88.000 345.800 C 86.604 345.800,86.600 345.805,86.474 347.797 C 86.288 350.743,83.775 352.415,82.080 350.720 C 81.192 349.832,81.421 331.886,82.331 331.062 C 84.152 329.415,86.400 331.093,86.400 334.099 C 86.400 336.091,87.130 336.730,88.800 336.200 C 89.935 335.840,89.936 331.957,88.802 330.096 C 87.205 327.476,83.748 326.468,81.118 327.856 M104.800 340.989 L 104.800 354.826 109.300 354.713 L 113.800 354.600 113.800 353.200 L 113.800 351.800 111.000 351.600 L 108.200 351.400 108.000 339.400 L 107.800 327.400 106.300 327.276 L 104.800 327.152 104.800 340.989 M132.079 327.787 C 129.098 329.431,128.800 330.636,128.800 341.035 C 128.800 349.154,128.876 350.181,129.577 351.555 C 131.706 355.729,137.749 355.665,139.751 351.447 C 140.780 349.279,140.706 332.364,139.659 330.394 C 138.177 327.604,134.625 326.382,132.079 327.787 M157.355 327.962 C 154.975 329.413,154.400 330.719,154.401 334.662 C 154.403 339.141,154.955 340.139,158.441 341.970 C 162.349 344.022,162.400 344.092,162.400 347.382 C 162.400 350.656,162.056 351.200,159.988 351.200 C 158.264 351.200,157.677 350.347,157.510 347.600 C 157.402 345.831,157.374 345.798,155.900 345.676 L 154.400 345.552 154.400 348.238 C 154.400 352.556,157.127 355.202,160.982 354.624 C 167.298 353.676,167.853 343.045,161.745 340.004 C 157.686 337.983,157.600 337.875,157.600 334.788 C 157.600 330.965,159.212 329.413,161.511 331.023 C 162.242 331.535,162.400 332.027,162.400 333.791 C 162.400 335.867,162.441 335.945,163.644 336.210 C 165.580 336.635,166.134 335.810,165.785 333.022 C 165.206 328.383,160.902 325.799,157.355 327.962 M180.895 340.887 L 181.000 354.600 185.469 354.713 C 189.661 354.819,189.954 354.775,190.196 354.013 C 190.771 352.201,190.125 351.600,187.606 351.600 C 183.913 351.600,184.000 351.711,184.000 347.000 C 184.000 342.382,183.988 342.400,187.033 342.400 L 188.800 342.400 188.800 340.820 L 188.800 339.240 186.500 339.120 L 184.200 339.000 184.200 334.800 L 184.200 330.600 187.200 330.400 L 190.200 330.200 190.200 328.800 L 190.200 327.400 185.495 327.287 L 180.789 327.175 180.895 340.887 M204.800 328.779 L 204.800 330.358 206.900 330.479 L 209.000 330.600 209.200 342.600 L 209.400 354.600 210.524 354.729 C 212.797 354.989,212.800 354.971,212.800 342.151 L 212.800 330.400 214.800 330.400 L 216.800 330.400 216.800 328.800 L 216.800 327.200 210.800 327.200 L 204.800 327.200 204.800 328.779 M257.355 327.962 C 254.989 329.405,254.400 330.726,254.400 334.588 C 254.400 339.333,255.038 340.361,259.200 342.330 C 262.315 343.804,262.400 343.935,262.400 347.291 C 262.400 350.662,262.068 351.200,259.988 351.200 C 258.264 351.200,257.677 350.347,257.510 347.600 C 257.402 345.831,257.374 345.798,255.900 345.676 L 254.400 345.552 254.400 348.285 C 254.400 351.627,255.756 353.688,258.427 354.407 C 266.316 356.532,269.262 343.746,261.745 340.004 C 257.698 337.989,257.600 337.867,257.600 334.842 C 257.600 332.534,257.735 332.012,258.526 331.270 C 260.441 329.470,262.400 330.664,262.400 333.631 C 262.400 335.377,262.525 335.674,263.431 336.087 C 265.127 336.860,265.808 336.104,265.757 333.506 C 265.664 328.673,261.113 325.670,257.355 327.962 M276.764 327.370 C 276.544 327.589,276.834 330.515,277.598 335.800 C 277.852 337.560,278.221 340.170,278.418 341.600 C 279.426 348.925,279.624 350.373,279.900 352.400 L 280.200 354.600 281.978 354.600 L 283.755 354.600 284.246 351.800 C 284.516 350.260,284.751 348.246,284.768 347.324 C 284.844 343.334,285.906 345.363,286.773 351.150 C 287.316 354.774,287.331 354.800,289.010 354.800 C 290.666 354.800,291.008 354.241,291.336 351.000 C 291.470 349.680,291.752 347.430,291.963 346.000 C 292.173 344.570,292.550 341.960,292.800 340.200 C 293.050 338.440,293.427 335.830,293.637 334.400 C 293.848 332.970,294.131 330.765,294.266 329.500 L 294.511 327.200 292.920 327.200 L 291.329 327.200 290.830 330.700 C 290.555 332.625,290.166 335.064,289.965 336.120 C 289.764 337.176,289.600 338.650,289.600 339.396 C 289.600 343.605,288.430 340.306,287.615 333.800 C 286.836 327.585,286.772 327.400,285.400 327.400 C 284.414 327.400,284.182 327.578,284.099 328.400 C 284.044 328.950,283.824 330.660,283.611 332.200 C 282.200 342.415,281.921 343.364,281.463 339.500 C 281.326 338.345,281.018 336.050,280.779 334.400 C 280.539 332.750,280.220 330.500,280.071 329.400 C 279.813 327.493,277.847 326.287,276.764 327.370 M308.479 327.881 C 308.275 328.276,307.995 329.590,307.856 330.800 C 307.718 332.010,307.429 334.260,307.214 335.800 C 307.000 337.340,306.640 339.950,306.414 341.600 C 306.189 343.250,305.819 345.860,305.592 347.400 C 305.365 348.940,305.068 351.247,304.932 352.528 L 304.684 354.855 306.228 354.728 C 307.757 354.601,307.776 354.579,308.215 352.377 C 308.801 349.438,308.990 349.199,310.724 349.206 C 312.726 349.214,313.192 349.596,313.440 351.432 C 313.905 354.875,313.894 354.858,315.513 354.723 C 317.284 354.576,317.292 353.369,315.600 342.800 C 315.406 341.590,315.034 338.980,314.774 337.000 C 314.513 335.020,314.086 332.050,313.824 330.400 L 313.349 327.400 311.099 327.281 C 309.261 327.183,308.781 327.293,308.479 327.881 M330.582 327.703 C 330.476 327.980,330.436 334.145,330.494 341.403 L 330.600 354.600 332.100 354.724 L 333.600 354.848 333.600 349.398 C 333.600 342.831,333.767 342.401,336.314 342.399 C 342.807 342.393,344.701 330.874,338.720 327.762 C 337.303 327.025,330.860 326.978,330.582 327.703 M136.200 331.029 C 137.312 331.868,137.672 348.620,136.613 350.237 C 135.759 351.539,133.512 351.581,132.623 350.311 C 131.423 348.598,131.726 332.638,132.982 331.382 C 134.101 330.263,135.047 330.159,136.200 331.029 M337.787 331.021 C 338.899 331.861,339.194 336.739,338.222 338.222 C 337.639 339.112,337.316 339.227,335.677 339.121 L 333.800 339.000 333.682 335.600 C 333.501 330.385,334.893 328.833,337.787 331.021 M311.527 338.300 C 311.795 340.005,312.158 342.251,312.336 343.291 C 312.688 345.359,312.372 346.000,311.000 346.000 C 309.599 346.000,309.349 345.385,309.659 342.705 C 309.818 341.327,310.076 339.075,310.232 337.700 C 310.607 334.393,310.938 334.547,311.527 338.300 " stroke="none" fill="#fadea7" fill-rule="evenodd"></path><path id="path1" d="M0.000 200.000 L 0.000 400.000 200.000 400.000 L 400.000 400.000 400.000 200.000 L 400.000 0.000 200.000 0.000 L 0.000 0.000 0.000 200.000 M216.800 17.209 C 227.822 18.539,229.813 18.859,236.600 20.397 C 238.861 20.910,241.320 21.545,242.800 22.000 C 243.350 22.169,244.610 22.529,245.600 22.800 C 247.564 23.339,249.975 24.177,254.013 25.725 C 259.222 27.722,260.001 28.148,259.987 28.994 C 259.962 30.621,258.377 31.754,257.380 30.859 C 257.171 30.672,255.292 29.845,253.204 29.022 C 249.611 27.605,248.741 27.303,244.400 25.958 C 242.097 25.244,228.868 25.243,225.176 25.956 C 216.695 27.594,213.654 28.563,207.400 31.618 C 202.086 34.214,199.430 36.247,199.306 37.814 C 197.836 56.444,190.680 67.227,176.759 71.787 C 173.561 72.834,173.637 72.890,173.163 69.118 C 171.223 53.668,179.534 40.108,193.965 35.178 C 195.375 34.696,198.250 33.143,200.354 31.727 C 207.266 27.073,213.221 24.759,223.500 22.733 C 227.739 21.897,227.247 21.730,217.800 20.799 C 212.559 20.282,202.848 20.504,199.729 21.212 C 191.912 22.985,190.075 23.600,184.200 26.411 C 171.653 32.413,160.678 43.177,151.417 58.565 C 149.791 61.268,149.547 61.941,149.750 63.165 C 149.881 63.954,150.254 66.220,150.580 68.200 C 152.541 80.131,149.540 90.365,141.829 98.038 C 139.582 100.274,134.228 104.000,133.262 104.000 C 132.941 104.000,131.753 100.536,130.725 96.600 C 130.016 93.882,130.019 82.747,130.730 80.600 C 133.356 72.672,136.975 67.765,143.140 63.773 C 145.136 62.480,145.835 61.703,147.245 59.208 C 156.614 42.619,168.812 30.325,182.600 23.573 C 187.785 21.033,187.395 21.261,187.085 20.951 C 186.948 20.815,185.657 20.900,184.216 21.142 C 182.775 21.384,180.292 21.786,178.698 22.035 C 177.104 22.284,175.260 22.627,174.600 22.798 C 173.940 22.969,172.320 23.328,171.000 23.597 C 169.680 23.866,168.150 24.225,167.600 24.396 C 167.050 24.567,165.790 24.936,164.800 25.215 C 134.056 33.893,108.841 52.718,89.552 81.394 C 87.428 84.551,87.162 85.158,87.362 86.394 C 88.501 93.444,88.639 101.871,87.666 105.000 C 87.461 105.660,87.057 107.010,86.769 108.000 C 84.963 114.195,78.884 121.686,73.217 124.700 C 70.474 126.159,70.316 126.004,68.862 120.400 C 64.846 104.932,69.166 92.711,81.383 84.971 C 83.940 83.352,84.696 82.593,86.492 79.846 C 88.423 76.891,95.773 66.869,96.353 66.400 C 96.489 66.290,97.576 65.030,98.769 63.600 C 101.563 60.251,109.851 51.963,113.200 49.169 C 114.630 47.976,115.890 46.897,116.000 46.772 C 117.057 45.565,128.561 37.534,132.800 35.042 C 136.249 33.015,147.805 27.459,151.200 26.196 C 152.190 25.827,153.360 25.370,153.800 25.180 C 154.843 24.728,160.657 22.794,162.200 22.386 C 173.413 19.413,177.883 18.542,188.600 17.242 C 192.651 16.751,212.804 16.727,216.800 17.209 M265.724 37.247 C 273.138 38.650,279.565 41.116,286.372 45.171 C 297.398 51.738,306.829 64.249,309.159 75.400 C 309.389 76.500,309.762 78.245,309.989 79.277 C 313.159 93.742,305.612 113.388,293.196 122.994 C 274.947 137.112,246.904 131.283,237.326 111.379 C 235.102 106.759,234.402 103.586,234.416 98.200 C 234.469 78.814,250.292 65.675,268.006 70.306 C 273.399 71.716,282.319 79.130,282.409 82.278 C 282.414 82.455,283.053 83.305,283.829 84.166 C 290.669 91.762,292.362 102.655,288.158 112.022 C 286.853 114.930,286.800 114.931,283.696 112.163 C 274.210 103.700,271.649 92.496,276.865 82.272 L 277.674 80.687 275.276 78.443 C 262.355 66.353,242.151 74.167,238.157 92.800 C 235.123 106.957,244.010 120.678,259.690 126.044 C 261.960 126.820,261.842 126.358,259.039 123.485 C 256.379 120.759,254.084 117.270,253.167 114.559 C 252.877 113.702,251.978 112.100,251.169 111.000 C 249.032 108.095,246.913 103.774,246.044 100.554 C 244.584 95.141,246.742 84.912,249.742 83.019 C 251.257 82.064,256.111 88.489,258.760 94.956 C 260.230 98.543,259.633 105.322,257.461 109.731 C 255.973 112.752,255.992 113.014,257.973 116.796 C 262.167 124.800,273.942 128.671,282.936 125.002 C 295.616 119.830,304.763 106.838,306.830 91.062 C 308.502 78.299,296.122 60.219,288.338 64.057 C 278.503 68.906,267.686 67.485,261.056 60.475 C 259.657 58.995,259.772 58.790,263.042 56.962 C 271.029 52.495,279.351 52.243,285.854 56.271 C 288.326 57.803,288.876 58.097,292.827 60.004 C 294.828 60.969,297.290 62.581,298.745 63.877 C 301.535 66.363,302.056 66.434,300.736 64.150 C 296.568 56.939,288.224 49.480,282.750 48.072 C 270.395 44.894,260.256 44.749,252.900 47.646 C 248.370 49.429,247.200 50.430,247.200 52.521 C 247.200 53.444,246.916 55.460,246.570 57.000 C 246.223 58.540,245.846 60.250,245.732 60.800 C 243.851 69.865,233.514 79.533,224.100 81.032 L 222.400 81.302 222.400 77.151 C 222.402 62.263,230.042 51.431,242.854 48.156 C 244.255 47.798,246.720 46.818,248.334 45.979 C 253.505 43.290,257.606 42.400,264.829 42.400 C 270.008 42.400,271.676 42.021,268.905 41.474 C 262.315 40.174,260.854 40.016,255.400 40.015 C 247.658 40.015,241.062 41.190,235.400 43.578 C 222.778 48.902,215.237 57.313,211.711 70.000 C 210.924 72.832,210.814 82.966,211.539 85.800 C 212.503 89.569,212.928 90.800,213.267 90.800 C 214.845 90.800,223.461 100.971,225.800 105.596 C 226.934 107.838,227.188 108.541,228.260 112.400 C 229.074 115.329,229.069 123.048,228.252 126.000 C 226.047 133.968,226.173 133.956,217.806 126.989 C 207.950 118.782,204.238 106.120,208.310 94.600 C 209.481 91.286,209.492 91.026,208.598 87.400 C 207.606 83.375,207.593 72.349,208.576 69.000 C 210.071 63.905,209.448 63.977,206.263 69.269 C 198.613 81.980,194.655 101.733,197.173 114.626 C 197.428 115.932,197.816 117.900,198.035 119.000 C 200.470 131.230,208.401 146.350,212.400 146.388 C 227.274 146.526,240.715 157.517,244.339 172.506 C 245.167 175.930,244.754 176.195,239.509 175.593 C 224.357 173.857,214.694 167.006,211.026 155.400 C 210.678 154.300,210.190 152.770,209.942 152.000 C 209.693 151.230,209.002 149.970,208.407 149.200 C 200.970 139.578,196.765 129.933,193.933 116.000 C 193.216 112.469,193.219 97.610,193.938 93.600 C 199.549 62.309,221.058 40.118,249.000 36.793 C 252.574 36.367,262.500 36.637,265.724 37.247 M121.022 68.667 C 122.301 80.608,117.313 90.821,107.869 95.596 C 106.354 96.362,106.056 97.026,105.385 101.114 C 102.523 118.574,108.965 136.748,123.555 152.374 C 126.166 155.170,126.355 154.869,124.648 150.636 C 123.054 146.684,121.792 141.777,121.397 138.000 C 121.129 135.434,120.895 134.752,119.339 132.000 C 114.386 123.239,115.135 113.712,121.307 106.959 C 123.772 104.262,124.053 104.271,125.703 107.100 C 131.248 116.608,131.095 127.466,125.315 134.541 C 122.890 137.510,127.331 151.444,133.188 159.237 C 136.178 163.216,143.510 169.823,144.186 169.148 C 144.279 169.054,143.767 167.810,143.049 166.382 C 142.330 164.954,141.612 163.339,141.453 162.793 C 141.293 162.247,140.874 160.810,140.520 159.600 C 139.702 156.804,139.586 147.107,140.335 144.200 C 141.487 139.731,141.727 138.909,142.492 136.800 C 143.934 132.828,145.338 129.728,146.931 127.000 C 147.620 125.820,148.323 123.770,148.646 122.000 C 151.781 104.805,161.056 95.560,176.558 94.177 L 179.715 93.895 179.426 96.448 C 178.185 107.424,171.770 118.182,163.507 123.147 C 159.800 125.375,157.310 126.257,151.520 127.393 C 150.107 127.671,146.144 135.502,144.736 140.800 C 140.095 158.252,146.020 171.592,162.147 179.996 C 163.936 180.928,165.452 181.737,165.515 181.794 C 165.706 181.964,164.645 184.180,164.234 184.470 C 163.828 184.756,159.383 182.510,151.200 177.883 C 127.230 164.330,108.611 144.109,103.981 126.600 C 101.825 118.447,101.538 116.418,101.524 109.255 C 101.513 103.045,101.791 100.343,102.866 96.226 C 103.092 95.360,103.257 92.750,103.234 90.426 C 103.195 86.584,103.673 83.157,104.718 79.789 C 106.371 74.458,112.236 68.689,118.090 66.637 C 120.682 65.729,120.709 65.749,121.022 68.667 M324.368 82.953 C 325.464 84.577,326.729 86.557,327.180 87.353 C 327.631 88.149,328.386 89.475,328.858 90.300 C 331.125 94.266,334.339 101.090,335.970 105.400 C 336.469 106.720,337.022 108.160,337.199 108.600 C 342.637 122.170,344.605 141.107,341.791 152.800 C 341.659 153.350,341.360 154.610,341.126 155.600 C 340.037 160.212,337.846 165.726,335.512 169.729 C 334.766 171.007,334.197 172.827,333.824 175.129 C 331.792 187.665,324.930 194.808,313.663 196.117 C 309.177 196.638,314.366 181.002,320.708 174.887 C 322.844 172.828,328.612 169.600,330.156 169.600 C 331.621 169.600,332.468 168.647,334.166 165.083 C 336.484 160.219,337.269 157.843,338.781 151.100 C 340.595 143.018,339.965 130.850,337.181 120.200 C 335.572 114.043,334.763 111.504,332.976 107.000 C 331.101 102.273,330.914 102.214,330.630 106.266 C 330.494 108.210,330.183 111.150,329.939 112.800 C 329.544 115.465,329.211 116.949,328.006 121.400 C 327.491 123.301,326.160 127.206,325.220 129.569 C 324.488 131.409,324.397 132.198,324.621 134.769 C 325.919 149.653,317.557 162.395,303.486 166.977 C 300.013 168.108,299.997 168.085,300.007 162.067 C 300.031 148.644,304.985 138.192,314.200 132.127 C 316.542 130.585,320.049 128.800,320.734 128.800 C 322.002 128.800,324.710 121.761,325.965 115.200 C 326.197 113.990,326.570 112.046,326.793 110.880 C 328.396 102.527,326.556 92.402,322.218 85.704 C 319.720 81.849,319.641 81.548,320.900 80.670 C 322.216 79.752,322.202 79.743,324.368 82.953 M95.456 123.986 C 94.337 136.029,88.227 144.288,77.839 147.800 L 75.473 148.600 73.771 152.000 C 72.300 154.939,71.614 156.755,69.994 162.000 C 69.638 163.155,69.033 166.257,68.425 170.046 C 66.784 180.271,69.418 196.941,74.802 210.400 C 75.286 211.610,75.856 213.050,76.069 213.600 C 76.686 215.194,77.062 213.925,77.370 209.200 C 77.521 206.890,77.807 204.280,78.004 203.400 C 79.584 196.368,80.743 192.466,82.394 188.613 C 83.061 187.059,83.200 185.857,83.200 181.667 C 83.200 165.385,89.914 155.462,104.349 150.406 C 107.356 149.353,107.389 149.379,107.739 153.124 C 109.228 169.075,100.054 184.462,86.400 188.914 C 85.602 189.175,83.369 195.327,82.086 200.800 C 78.891 214.426,80.509 224.858,87.325 234.560 L 88.140 235.720 87.225 236.460 C 85.550 237.817,84.152 236.614,81.362 231.415 C 81.122 230.967,80.389 229.700,79.733 228.600 C 68.787 210.233,62.509 184.449,65.213 168.967 C 66.729 160.292,67.914 156.531,71.237 149.850 C 72.537 147.238,73.600 144.663,73.600 144.128 C 73.600 143.174,73.996 141.194,74.903 137.604 C 77.163 128.671,85.458 121.842,94.757 121.260 C 95.704 121.201,95.712 121.231,95.456 123.986 M249.158 135.452 C 251.931 136.911,255.502 138.891,257.093 139.852 C 258.684 140.813,260.095 141.600,260.227 141.600 C 260.669 141.600,267.531 146.352,272.346 149.992 C 288.242 162.010,298.425 175.056,303.419 189.800 C 306.629 199.278,307.366 212.124,305.152 220.000 C 304.935 220.770,304.598 224.370,304.403 228.000 C 303.802 239.157,301.061 244.444,293.623 248.788 C 287.309 252.476,286.403 252.050,286.412 245.400 C 286.427 235.010,291.090 226.612,299.373 222.053 C 301.739 220.752,302.050 219.904,302.807 212.687 C 304.518 196.367,297.582 178.959,283.531 164.314 C 282.574 163.317,281.290 162.739,281.723 163.500 C 282.099 164.160,283.709 167.982,284.210 169.400 C 285.185 172.163,286.400 177.944,286.400 179.822 C 286.400 180.967,286.964 182.557,288.315 185.222 C 293.745 195.933,292.688 204.435,284.949 212.300 C 283.904 213.362,282.617 211.872,280.464 207.105 C 278.170 202.027,277.327 193.655,278.742 190.000 C 279.811 187.240,281.719 183.617,282.452 182.952 C 283.732 181.794,283.459 178.562,281.525 172.000 C 278.901 163.097,272.540 154.112,265.364 149.175 C 262.997 147.547,262.958 147.673,264.738 151.214 C 266.152 154.029,266.519 155.045,267.568 159.046 C 268.123 161.162,268.128 169.882,267.575 172.323 C 267.342 173.355,266.964 175.010,266.737 176.000 C 265.949 179.424,264.153 183.888,261.300 189.515 C 260.145 191.793,259.200 194.181,259.200 194.822 C 259.200 203.510,251.401 215.861,243.400 219.843 C 238.699 222.183,234.897 223.200,230.854 223.200 C 227.564 223.200,227.668 223.393,228.585 219.000 C 230.860 208.098,236.028 199.685,243.448 194.807 C 246.788 192.611,252.217 190.400,254.269 190.400 C 256.454 190.400,257.430 189.616,258.888 186.687 C 265.847 172.703,266.603 161.958,261.335 151.928 C 258.546 146.618,250.987 139.844,244.489 136.832 C 242.294 135.814,242.110 135.474,242.864 133.819 C 243.488 132.450,243.415 132.431,249.158 135.452 M166.200 140.586 C 176.852 142.489,184.837 147.621,188.975 155.226 C 190.249 157.566,191.999 162.293,192.002 163.398 C 192.003 163.839,192.686 165.100,193.519 166.200 C 194.353 167.300,195.781 169.299,196.693 170.642 C 198.234 172.911,198.879 174.005,201.325 178.500 C 202.416 180.504,205.292 187.828,205.999 190.400 C 206.270 191.390,206.633 192.650,206.804 193.200 C 207.123 194.227,207.646 196.801,208.382 200.967 C 208.921 204.017,208.924 217.956,208.387 221.033 C 207.190 227.883,205.830 233.194,204.374 236.700 C 204.168 237.195,203.845 238.005,203.655 238.500 C 194.327 262.840,171.392 279.200,146.600 279.200 C 140.236 279.200,137.535 278.843,131.100 277.154 C 116.893 273.423,103.043 262.518,96.866 250.197 C 79.488 215.540,109.368 175.526,144.247 186.746 C 168.338 194.495,175.993 223.342,158.328 239.812 C 147.230 250.161,128.205 247.842,120.903 235.251 C 120.312 234.233,118.995 232.320,117.975 231.000 C 111.125 222.132,109.839 212.566,114.263 203.400 C 115.508 200.820,116.195 201.043,120.269 205.349 C 128.516 214.062,130.226 223.068,125.532 233.055 L 124.737 234.747 125.602 235.917 C 132.858 245.732,149.756 245.148,158.381 234.785 C 170.925 219.711,163.894 197.637,144.200 190.267 C 139.924 188.667,139.701 188.948,142.896 191.914 C 145.308 194.153,147.539 197.464,148.799 200.673 C 149.302 201.953,150.222 203.657,150.844 204.460 C 157.349 212.864,158.470 222.295,153.950 230.600 C 152.528 233.213,151.955 233.258,149.747 230.931 C 142.297 223.081,140.598 214.452,144.790 205.759 C 146.179 202.879,146.160 202.607,144.341 199.254 C 135.460 182.886,111.457 187.678,100.537 208.000 C 96.416 215.669,94.060 226.939,95.553 231.840 C 95.748 232.478,96.138 233.810,96.421 234.800 C 98.384 241.662,104.010 249.196,109.232 251.958 L 111.043 252.916 113.622 251.686 C 123.274 247.082,133.107 248.024,139.874 254.200 C 142.668 256.750,142.531 257.104,137.855 259.421 C 129.685 263.468,122.403 263.424,116.030 259.287 C 114.803 258.491,112.535 257.282,110.989 256.600 C 107.759 255.176,104.852 253.304,102.707 251.269 C 98.590 247.361,101.972 253.529,106.661 258.480 C 113.916 266.140,115.612 267.067,126.400 269.269 C 134.396 270.902,146.422 269.709,152.066 266.723 C 154.448 265.464,154.553 265.287,154.998 261.800 C 156.736 248.190,163.944 238.863,175.521 235.244 C 179.906 233.873,180.541 234.901,179.626 241.886 C 177.756 256.173,171.953 263.597,159.572 267.545 C 158.786 267.795,157.849 268.000,157.489 268.000 C 157.130 268.000,155.972 268.505,154.918 269.121 C 149.886 272.063,143.477 273.600,136.244 273.600 C 132.497 273.600,131.361 274.085,134.096 274.518 C 147.875 276.695,154.747 276.298,165.000 272.735 C 183.491 266.310,194.195 248.614,190.609 230.400 C 189.687 225.717,189.547 225.443,187.000 223.322 C 174.157 212.629,170.102 198.663,175.671 184.300 C 176.224 182.873,176.182 182.863,179.763 185.201 C 189.704 191.691,195.352 201.165,195.383 211.400 C 195.397 216.167,195.269 216.898,193.498 222.164 C 192.654 224.672,192.628 224.259,194.033 230.677 C 194.619 233.354,194.473 242.264,193.792 245.400 C 193.458 246.940,193.075 248.695,192.942 249.300 C 192.617 250.777,193.247 250.692,194.214 249.128 C 198.836 241.647,200.921 237.022,203.105 229.400 C 206.469 217.658,206.445 204.787,203.034 192.200 C 200.461 182.705,193.319 169.652,190.677 169.616 C 190.060 169.607,188.710 169.415,187.677 169.189 C 186.645 168.962,184.900 168.586,183.800 168.352 C 173.165 166.090,164.304 159.435,160.234 150.651 C 159.020 148.032,157.600 142.925,157.600 141.180 L 157.600 140.000 160.300 140.007 C 161.785 140.011,164.440 140.272,166.200 140.586 M337.989 193.721 C 338.266 194.644,338.633 195.850,338.804 196.400 C 343.306 210.885,338.170 225.584,326.153 232.613 C 324.164 233.776,323.306 234.624,321.789 236.930 C 319.973 239.689,319.069 240.955,315.177 246.191 C 308.488 255.190,298.290 265.652,289.826 272.200 C 288.973 272.860,287.808 273.776,287.237 274.237 C 277.729 281.904,257.953 291.724,245.000 295.210 C 229.746 299.315,219.164 300.800,205.168 300.800 C 193.388 300.800,187.782 300.229,173.600 297.583 C 169.293 296.779,158.265 293.646,155.300 292.383 C 154.805 292.172,153.995 291.838,153.500 291.640 C 153.005 291.442,151.747 290.902,150.704 290.440 C 149.662 289.978,148.646 289.600,148.447 289.600 C 147.281 289.600,148.030 286.721,149.258 286.484 C 149.609 286.417,151.094 286.910,152.558 287.581 C 154.022 288.251,155.450 288.800,155.730 288.800 C 156.011 288.800,156.411 288.948,156.620 289.128 C 156.829 289.308,158.350 289.868,160.000 290.372 C 161.650 290.875,163.413 291.448,163.919 291.644 C 168.033 293.239,185.452 291.530,193.800 288.712 C 203.648 285.386,208.800 281.548,208.800 277.536 C 208.800 276.006,208.965 274.000,209.167 273.077 C 209.369 272.155,209.760 270.320,210.035 269.000 C 212.338 257.970,220.102 249.356,231.140 245.587 C 234.570 244.415,234.561 244.400,234.546 251.549 C 234.530 258.622,233.822 262.125,231.342 267.400 C 228.617 273.196,223.864 278.002,218.400 280.487 C 215.506 281.803,213.880 282.400,213.189 282.400 C 212.797 282.400,210.524 283.687,208.138 285.259 C 200.412 290.352,193.143 293.231,184.592 294.585 C 182.597 294.900,181.525 295.467,182.411 295.736 C 186.235 296.895,202.006 297.353,206.600 296.437 C 227.783 292.214,244.525 279.670,255.989 259.431 C 256.435 258.644,257.164 257.358,257.608 256.573 C 258.271 255.404,258.348 254.881,258.038 253.673 C 256.639 248.217,256.339 239.899,257.371 235.200 C 259.312 226.364,263.342 220.445,270.751 215.550 C 275.145 212.647,275.095 212.602,277.018 221.200 C 277.667 224.097,277.820 233.958,277.247 235.840 C 277.052 236.478,276.653 237.810,276.360 238.800 C 274.656 244.556,269.414 251.026,263.963 254.100 C 262.726 254.798,261.904 255.810,260.311 258.600 C 253.528 270.475,245.165 280.349,236.123 287.157 C 231.814 290.401,231.067 290.856,224.400 294.291 L 220.200 296.454 223.200 296.209 C 224.850 296.074,227.100 295.787,228.200 295.570 C 229.300 295.353,231.190 294.985,232.400 294.751 C 235.065 294.237,240.947 292.857,242.600 292.359 C 248.502 290.579,254.573 288.459,257.496 287.156 C 258.428 286.740,259.281 286.400,259.390 286.400 C 259.678 286.400,268.246 282.186,270.600 280.887 C 285.242 272.805,298.945 261.151,309.738 247.600 C 311.228 245.730,312.706 243.883,313.024 243.495 C 315.452 240.528,320.830 231.858,320.603 231.276 C 316.386 220.499,321.014 203.319,330.142 195.864 C 335.364 191.599,337.202 191.097,337.989 193.721 M86.704 327.998 C 90.453 330.284,90.882 337.369,87.200 336.200 C 86.552 335.994,86.400 335.595,86.400 334.099 C 86.400 331.093,84.152 329.415,82.331 331.062 C 81.421 331.886,81.192 349.832,82.080 350.720 C 83.775 352.415,86.288 350.743,86.474 347.797 C 86.600 345.805,86.604 345.800,88.000 345.800 L 89.400 345.800 89.519 348.082 C 89.851 354.427,82.425 357.224,78.928 352.072 C 77.676 350.229,77.835 331.511,79.118 329.713 C 80.884 327.237,84.219 326.483,86.704 327.998 M108.000 339.400 L 108.200 351.400 111.000 351.600 L 113.800 351.800 113.800 353.200 L 113.800 354.600 109.300 354.713 L 104.800 354.826 104.800 340.989 L 104.800 327.152 106.300 327.276 L 107.800 327.400 108.000 339.400 M137.600 328.100 C 140.218 329.887,140.400 330.720,140.400 340.933 C 140.400 348.543,140.291 350.309,139.751 351.447 C 137.749 355.665,131.706 355.729,129.577 351.555 C 128.616 349.672,128.390 332.961,129.297 330.919 C 130.835 327.457,134.724 326.137,137.600 328.100 M162.372 327.786 C 166.366 329.851,167.453 337.046,163.644 336.210 C 162.441 335.945,162.400 335.867,162.400 333.791 C 162.400 332.027,162.242 331.535,161.511 331.023 C 159.212 329.413,157.600 330.965,157.600 334.788 C 157.600 337.875,157.686 337.983,161.745 340.004 C 167.853 343.045,167.298 353.676,160.982 354.624 C 157.127 355.202,154.400 352.556,154.400 348.238 L 154.400 345.552 155.900 345.676 C 157.374 345.798,157.402 345.831,157.510 347.600 C 157.677 350.347,158.264 351.200,159.988 351.200 C 162.056 351.200,162.400 350.656,162.400 347.382 C 162.400 344.092,162.349 344.022,158.441 341.970 C 154.955 340.139,154.403 339.141,154.401 334.662 C 154.399 328.797,158.120 325.587,162.372 327.786 M190.200 328.800 L 190.200 330.200 187.200 330.400 L 184.200 330.600 184.200 334.800 L 184.200 339.000 186.500 339.120 L 188.800 339.240 188.800 340.820 L 188.800 342.400 187.033 342.400 C 183.988 342.400,184.000 342.382,184.000 347.000 C 184.000 351.711,183.913 351.600,187.606 351.600 C 190.125 351.600,190.771 352.201,190.196 354.013 C 189.954 354.775,189.661 354.819,185.469 354.713 L 181.000 354.600 180.895 340.887 L 180.789 327.175 185.495 327.287 L 190.200 327.400 190.200 328.800 M216.800 328.800 L 216.800 330.400 214.800 330.400 L 212.800 330.400 212.800 342.151 C 212.800 354.971,212.797 354.989,210.524 354.729 L 209.400 354.600 209.200 342.600 L 209.000 330.600 206.900 330.479 L 204.800 330.358 204.800 328.779 L 204.800 327.200 210.800 327.200 L 216.800 327.200 216.800 328.800 M262.782 328.038 C 266.528 330.143,267.144 337.779,263.431 336.087 C 262.525 335.674,262.400 335.377,262.400 333.631 C 262.400 330.664,260.441 329.470,258.526 331.270 C 257.735 332.012,257.600 332.534,257.600 334.842 C 257.600 337.867,257.698 337.989,261.745 340.004 C 266.328 342.285,267.586 349.712,263.975 353.163 C 260.120 356.847,254.400 353.933,254.400 348.285 L 254.400 345.552 255.900 345.676 C 257.374 345.798,257.402 345.831,257.510 347.600 C 257.677 350.347,258.264 351.200,259.988 351.200 C 262.068 351.200,262.400 350.662,262.400 347.291 C 262.400 343.935,262.315 343.804,259.200 342.330 C 255.038 340.361,254.400 339.333,254.400 334.588 C 254.400 328.538,258.278 325.507,262.782 328.038 M280.071 329.400 C 280.220 330.500,280.539 332.750,280.779 334.400 C 281.018 336.050,281.326 338.345,281.463 339.500 C 281.921 343.364,282.200 342.415,283.611 332.200 C 283.824 330.660,284.044 328.950,284.099 328.400 C 284.182 327.578,284.414 327.400,285.400 327.400 C 286.772 327.400,286.836 327.585,287.615 333.800 C 288.430 340.306,289.600 343.605,289.600 339.396 C 289.600 338.650,289.764 337.176,289.965 336.120 C 290.166 335.064,290.555 332.625,290.830 330.700 L 291.329 327.200 292.920 327.200 L 294.511 327.200 294.266 329.500 C 294.131 330.765,293.848 332.970,293.637 334.400 C 293.427 335.830,293.050 338.440,292.800 340.200 C 292.550 341.960,292.173 344.570,291.963 346.000 C 291.752 347.430,291.470 349.680,291.336 351.000 C 291.008 354.241,290.666 354.800,289.010 354.800 C 287.331 354.800,287.316 354.774,286.773 351.150 C 285.906 345.363,284.844 343.334,284.768 347.324 C 284.751 348.246,284.516 350.260,284.246 351.800 L 283.755 354.600 281.978 354.600 L 280.200 354.600 279.900 352.400 C 279.624 350.373,279.426 348.925,278.418 341.600 C 278.221 340.170,277.852 337.560,277.598 335.800 C 276.320 326.965,276.307 327.106,278.386 327.281 C 279.758 327.396,279.808 327.459,280.071 329.400 M313.824 330.400 C 314.086 332.050,314.513 335.020,314.774 337.000 C 315.034 338.980,315.406 341.590,315.600 342.800 C 317.292 353.369,317.284 354.576,315.513 354.723 C 313.894 354.858,313.905 354.875,313.440 351.432 C 313.192 349.596,312.726 349.214,310.724 349.206 C 308.990 349.199,308.801 349.438,308.215 352.377 C 307.776 354.579,307.757 354.601,306.228 354.728 L 304.684 354.855 304.932 352.528 C 305.068 351.247,305.365 348.940,305.592 347.400 C 305.819 345.860,306.189 343.250,306.414 341.600 C 306.640 339.950,307.000 337.340,307.214 335.800 C 307.429 334.260,307.718 332.010,307.856 330.800 C 308.249 327.382,308.470 327.141,311.099 327.281 L 313.349 327.400 313.824 330.400 M338.720 327.762 C 341.252 329.080,341.789 330.151,341.937 334.192 C 342.151 339.993,340.505 342.395,336.314 342.399 C 333.767 342.401,333.600 342.831,333.600 349.398 L 333.600 354.848 332.100 354.724 L 330.600 354.600 330.494 341.403 C 330.436 334.145,330.476 327.980,330.582 327.703 C 330.860 326.978,337.303 327.025,338.720 327.762 M132.982 331.382 C 131.726 332.638,131.423 348.598,132.623 350.311 C 133.512 351.581,135.759 351.539,136.613 350.237 C 137.672 348.620,137.312 331.868,136.200 331.029 C 135.047 330.159,134.101 330.263,132.982 331.382 M333.790 331.300 C 333.665 331.795,333.617 333.730,333.682 335.600 L 333.800 339.000 335.677 339.121 C 338.292 339.290,338.951 338.274,338.733 334.409 C 338.551 331.187,337.942 330.433,335.508 330.413 C 334.288 330.402,333.974 330.565,333.790 331.300 M310.232 337.700 C 310.076 339.075,309.818 341.327,309.659 342.705 C 309.349 345.385,309.599 346.000,311.000 346.000 C 312.372 346.000,312.688 345.359,312.336 343.291 C 312.158 342.251,311.795 340.005,311.527 338.300 C 310.938 334.547,310.607 334.393,310.232 337.700 " stroke="none" fill="#293242" fill-rule="evenodd"></path></g></svg>